<svg width="270" height="141" viewBox="0 0 270 141" fill="none" xmlns="http://www.w3.org/2000/svg">
<g clip-path="url(#clip0_2076_5449)">
<path d="M53.1478 99.1925L44.8266 97.4852C40.5059 96.6315 38.5857 94.2413 38.5857 91.1681C38.5857 87.5827 41.9462 83.9973 47.0669 83.9973C52.3477 83.9973 55.0681 86.5583 56.5083 89.1193L68.9902 84.6803C66.5898 77.851 60.3489 70.851 47.2269 70.851C35.2252 70.851 24.8236 79.7291 24.8236 92.3632C24.8236 102.266 31.2246 109.778 41.7861 111.997L50.2674 113.705C54.428 114.558 56.9884 116.949 56.9884 120.363C56.9884 124.461 53.6279 127.363 48.1871 127.363C40.826 127.363 36.9854 123.436 35.7052 118.485L23.2234 122.924C25.4637 131.461 33.1448 140.51 48.0271 140.51C62.9093 140.51 71.0705 129.924 71.0705 119.51C71.2305 109.607 64.9896 101.412 53.1478 99.1925Z" fill="#003B71"/>
<path d="M205.33 73.5827H186.928L164.204 101.583L150.282 116.436V140.168H164.204V122.412L171.245 114.046L188.048 140.168H205.33L181.007 102.436L205.33 73.5827Z" fill="#003B71"/>
<path d="M164.204 73.5827H150.282V101.583H164.204V73.5827Z" fill="#003B71"/>
<path d="M109.476 70.6803C91.5535 70.6803 76.8314 86.2169 76.8314 105.51C76.8314 124.802 91.5535 140.168 109.476 140.168C127.399 140.168 142.121 124.632 142.121 105.339C142.121 86.2169 127.559 70.6803 109.476 70.6803ZM109.476 125.656C99.0747 125.656 90.5934 116.607 90.5934 105.51C90.5934 94.412 99.0747 85.3632 109.476 85.3632C119.878 85.3632 128.359 94.412 128.359 105.51C128.359 116.607 119.878 125.656 109.476 125.656Z" fill="#003B71"/>
<path d="M236.855 70.6803C218.932 70.6803 204.21 86.2169 204.21 105.51C204.21 124.802 218.932 140.168 236.855 140.168C254.778 140.168 269.5 124.632 269.5 105.339C269.5 86.2169 254.938 70.6803 236.855 70.6803ZM236.855 125.656C226.454 125.656 217.972 116.607 217.972 105.51C217.972 94.412 226.454 85.3632 236.855 85.3632C247.257 85.3632 255.738 94.412 255.738 105.51C255.898 116.607 247.417 125.656 236.855 125.656Z" fill="#003B71"/>
<path d="M7.54105 87.0705C11.4297 87.0705 14.5821 83.7072 14.5821 79.5583C14.5821 75.4095 11.4297 72.0461 7.54105 72.0461C3.65238 72.0461 0.5 75.4095 0.5 79.5583C0.5 83.7072 3.65238 87.0705 7.54105 87.0705Z" fill="#003B71"/>
<path d="M0.5 102.949V129.583V140.168H14.5821V129.583V102.949V92.3632H0.5V102.949Z" fill="#003B71"/>
<path d="M189.168 58.0461H175.086C175.086 34.4852 157.163 15.3632 135.08 15.3632C112.997 15.3632 94.914 34.3144 94.914 58.0461H80.8319C80.8319 26.1193 105.156 0.168091 134.92 0.168091C164.684 0.168091 189.168 26.1193 189.168 58.0461Z" fill="#71BB60"/>
</g>
<defs>
<clipPath id="clip0_2076_5449">
<rect width="269" height="140" fill="white" transform="translate(0.5 0.168091)"/>
</clipPath>
</defs>
</svg>
