<svg width="269" height="140" viewBox="0 0 269 140" fill="none" xmlns="http://www.w3.org/2000/svg">
<path d="M52.5648 98.7835L44.2567 97.0803C39.9429 96.2287 38.0256 93.8443 38.0256 90.7786C38.0256 87.202 41.3808 83.6253 46.4935 83.6253C51.766 83.6253 54.4821 86.1801 55.92 88.7348L68.3822 84.3066C65.9856 77.4939 59.7545 70.511 46.6533 70.511C34.6704 70.511 24.2853 79.3674 24.2853 91.9708C24.2853 101.849 30.6761 109.343 41.221 111.557L49.6889 113.26C53.843 114.112 56.3993 116.496 56.3993 119.903C56.3993 123.99 53.0441 126.886 47.6119 126.886C40.2624 126.886 36.4279 122.968 35.1497 118.029L22.6876 122.457C24.9244 130.973 32.5934 140 47.4521 140C62.3109 140 70.4592 129.44 70.4592 119.051C70.619 109.173 64.3879 100.998 52.5648 98.7835Z" fill="white"/>
<path d="M204.507 73.2359H186.134L163.446 101.168L149.546 115.985V139.659H163.446V121.946L170.476 113.601L187.252 139.659H204.507L180.222 102.019L204.507 73.2359Z" fill="white"/>
<path d="M163.446 73.2359H149.546V101.168H163.446V73.2359Z" fill="white"/>
<path d="M108.804 70.3406C90.9099 70.3406 76.2109 85.8394 76.2109 105.085C76.2109 124.331 90.9099 139.659 108.804 139.659C126.699 139.659 141.398 124.161 141.398 104.915C141.398 85.8394 126.858 70.3406 108.804 70.3406ZM108.804 125.182C98.4192 125.182 89.9513 116.156 89.9513 105.085C89.9513 94.0146 98.4192 84.9878 108.804 84.9878C119.189 84.9878 127.657 94.0146 127.657 105.085C127.657 116.156 119.189 125.182 108.804 125.182Z" fill="white"/>
<path d="M235.982 70.3406C218.088 70.3406 203.389 85.8394 203.389 105.085C203.389 124.331 218.088 139.659 235.982 139.659C253.877 139.659 268.576 124.161 268.576 104.915C268.576 85.8394 254.036 70.3406 235.982 70.3406ZM235.982 125.182C225.597 125.182 217.129 116.156 217.129 105.085C217.129 94.0146 225.597 84.9878 235.982 84.9878C246.367 84.9878 254.835 94.0146 254.835 105.085C254.995 116.156 246.527 125.182 235.982 125.182Z" fill="white"/>
<path d="M7.02994 86.6911C10.9125 86.6911 14.0599 83.336 14.0599 79.1972C14.0599 75.0584 10.9125 71.7033 7.02994 71.7033C3.14741 71.7033 0 75.0584 0 79.1972C0 83.336 3.14741 86.6911 7.02994 86.6911Z" fill="white"/>
<path d="M0 102.53V129.1V139.659H14.0599V129.1V102.53V91.9707H0V102.53Z" fill="white"/>
<path d="M188.37 57.7372H174.311C174.311 34.2336 156.416 15.1581 134.368 15.1581C112.319 15.1581 94.2651 34.0633 94.2651 57.7372H80.2052C80.2052 25.8881 104.49 0 134.208 0C163.925 0 188.37 25.8881 188.37 57.7372Z" fill="white"/>
</svg>
